<?xml version="1.0" encoding="UTF-8"?>
<svg id="Layer_2" data-name="Layer 2" xmlns="http://www.w3.org/2000/svg" viewBox="0 0 54.87 52.75">
  <defs>
    <style>
      .cls-1 {
        fill: #a335ba;
      }

      .cls-2 {
        fill: #57b58f;
      }

      .cls-3 {
        fill: #191842;
      }
    </style>
  </defs>
  <g id="TEXTS">
    <g>
      <g>
        <g>
          <rect class="cls-3" x="25.68" y="23.97" width="3.5" height="28.78" rx="1.75" ry="1.75"/>
          <rect class="cls-3" x="19.91" y="39.41" width="4.67" height="1.84" rx=".42" ry=".42"/>
          <rect class="cls-3" x="30.28" y="39.41" width="4.67" height="1.84" rx=".42" ry=".42"/>
          <path class="cls-3" d="M27.51,21.37c-2.44-.04-4.43,1.99-4.43,4.43v12.19c0,.2.16.37.37.37h.8c.2,0,.37-.16.37-.37v-12.27c0-1.59,1.31-2.87,2.91-2.82,1.54.05,2.74,1.35,2.74,2.88v12.21c0,.2.16.37.37.37h.8c.2,0,.37-.16.37-.37v-12.27c0-2.38-1.91-4.31-4.28-4.36Z"/>
          <rect class="cls-3" x="26.67" y="15.68" width="1.53" height="6.46"/>
          <rect class="cls-3" x="25.51" y="13.78" width="3.85" height="2.77" rx="1.38" ry="1.38"/>
          <path class="cls-3" d="M27.68,15.85h-2.98c-1.39,0-2.71-.54-3.69-1.53-.7-.7-1.62-1.08-2.61-1.08h-5.59v-1.53h5.59c1.39,0,2.71.54,3.69,1.53.7.7,1.62,1.08,2.61,1.08h2.98v1.53Z"/>
          <path class="cls-3" d="M30.18,15.85h-2.98v-1.53h2.98c.98,0,1.91-.38,2.61-1.08.99-.99,2.3-1.53,3.69-1.53h5.59v1.53h-5.59c-.98,0-1.91.38-2.61,1.08-.99.99-2.3,1.53-3.69,1.53Z"/>
          <g>
            <rect class="cls-3" x="36.3" y="11.01" width=".93" height="2.84" rx=".23" ry=".23"/>
            <rect class="cls-3" x="41.65" y="11.01" width=".93" height="2.84" rx=".23" ry=".23"/>
            <rect class="cls-3" x="36.85" y="11.34" width="5.06" height="2.17"/>
          </g>
        </g>
        <g>
          <rect class="cls-3" x="12.32" y="11.01" width=".93" height="2.84" rx=".23" ry=".23"/>
          <rect class="cls-3" x="17.67" y="11.01" width=".93" height="2.84" rx=".23" ry=".23"/>
          <rect class="cls-3" x="12.87" y="11.34" width="5.06" height="2.17"/>
        </g>
        <g>
          <g>
            <path class="cls-2" d="M18.21,28.79H2.22c-1.3,0-2.3,1.14-2.13,2.43.18,1.39.47,2.74.85,4.05.31,1.07,1.29,1.8,2.4,1.8h9.86c1.24,0,2.4-.62,3.09-1.66l3.03-4.57c.58-.88-.05-2.05-1.1-2.05Z"/>
            <path class="cls-2" d="M52.68,28.79h-15.99c-1.05,0-1.68,1.17-1.1,2.05l3.03,4.57c.69,1.04,1.85,1.66,3.09,1.66h9.86c1.11,0,2.09-.73,2.4-1.8.38-1.31.66-2.67.84-4.05.17-1.29-.84-2.43-2.13-2.43Z"/>
          </g>
          <g>
            <path class="cls-2" d="M12.31,38.91h-6.87c-1.5,0-2.42,1.64-1.65,2.92.55.91,1.15,1.79,1.8,2.63,1.24,1.6,3.68,1.52,4.8-.16l2.66-4.01c.39-.59-.03-1.37-.74-1.37Z"/>
            <path class="cls-2" d="M49.46,38.91h-6.87c-.7,0-1.13.78-.74,1.37l2.66,4.01c1.11,1.68,3.55,1.78,4.79.18.65-.84,1.25-1.72,1.8-2.63.78-1.29-.14-2.93-1.64-2.93Z"/>
          </g>
          <path class="cls-1" d="M42.41,6.7c1.01,0,1.42-1.31.59-1.89C38.55,1.77,33.17-.01,27.4,0c-5.76.01-11.11,1.79-15.53,4.82-.84.57-.43,1.89.59,1.89h29.96Z"/>
        </g>
      </g>
      <path class="cls-1" d="M43,4.82C38.62,1.82,33.34.05,27.68,0v6.7h14.73c1.01,0,1.42-1.31.59-1.89Z"/>
      <g>
        <path class="cls-1" d="M54.86,24.56c-.16-1.48-.44-2.93-.83-4.33-.26-.93-1.11-1.56-2.07-1.56h-9.65l2.53,1.83h0s8.72,6.28,8.72,6.28c.84-.36,1.4-1.23,1.3-2.21Z"/>
        <path class="cls-1" d="M30.04,19.57h0c0,.33.17.62.45.78,1.22.71,2.18,1.83,2.7,3.17l6.73-4.85h-8.98c-.5,0-.9.4-.9.9Z"/>
      </g>
      <g>
        <path class="cls-1" d="M51.44,13.59c-.6-1.01-1.25-1.97-1.97-2.89h0c-.22-.28-.45-.56-.68-.84-.7-.83-1.72-1.31-2.8-1.31h-18.32s-18.81,0-18.81,0c-1.08,0-2.1.48-2.8,1.31-.15.18-.29.36-.43.54,0,0,0,0,0,0-.19.24-.38.48-.56.72-.03.04-.06.07-.08.11-.16.22-.32.43-.47.66-.07.1-.14.21-.21.31-.11.17-.23.34-.34.51-.19.29-.37.58-.54.87,0,0,0,0,0,.01-.21.36-.31.74-.3,1.11.01,1.11.91,2.13,2.16,2.13h13.71s0,0,0,0c.04,0,.08,0,.12-.01.01,0,.03,0,.04,0,.03,0,.05-.01.08-.02.01,0,.03-.01.04-.02.02-.01.05-.02.07-.04.01,0,.02-.01.03-.02.03-.02.06-.04.09-.07,0,0,0,0,0,0,0,0,0,0,0,0,0,0,0,0,0,0,.05-.05.09-.1.12-.15,0,0,0,0,0,0,.03-.06.06-.11.07-.18,0,0,0,0,0,0,0,0,0,0,0,0,.01-.05.02-.1.02-.16,0,0,0-.02,0-.02,0-.05,0-.1-.02-.15,0,0,0-.02,0-.03-.01-.05-.03-.1-.06-.15,0,0,0-.01-.01-.02-.03-.05-.06-.1-.11-.14,0,0-.01-.01-.02-.02-.14-.14-.31-.26-.49-.35-.02,0-.04-.02-.05-.03-.07-.03-.15-.06-.22-.09,0,0,0,0,0,0-.08-.02-.16-.04-.23-.05-.02,0-.04,0-.06,0-.08-.01-.16-.02-.24-.02,0,0,0,0,0,0h-5.59c-.07,0-.15,0-.22-.01-.02,0-.04,0-.06,0-.05,0-.1-.02-.15-.03-.02,0-.04-.01-.07-.02-.05-.01-.1-.03-.15-.05-.01,0-.03-.01-.04-.02-.07-.03-.13-.06-.19-.09,0,0,0,0,0,0-.06-.03-.12-.07-.17-.11-.01,0-.02-.02-.03-.03-.05-.03-.09-.07-.13-.11-.01,0-.02-.02-.03-.03-.05-.05-.1-.1-.14-.15,0,0,0,0,0,0-.05-.06-.09-.12-.13-.18-.04-.07-.08-.14-.12-.21,0-.01-.01-.02-.02-.03-.03-.07-.06-.15-.09-.23,0,0,0,0,0,0-.02-.07-.04-.15-.05-.23,0-.02,0-.04,0-.06-.01-.08-.02-.16-.02-.25v-1.53c0-1.02.82-1.84,1.84-1.84h5.66c.13,0,.26,0,.39.01.03,0,.06,0,.09,0,.1,0,.2.02.3.03.03,0,.06,0,.09.01.11.01.22.03.32.05.02,0,.04,0,.06.01.13.02.25.05.37.08.06.01.12.03.18.05,0,0,0,0,0,0,.15.04.3.09.44.14,0,0,0,0,0,0,.49.18.97.41,1.42.69.02.01.04.02.06.04.09.05.17.11.26.17.03.02.06.04.09.06.07.05.15.11.22.16.03.02.06.05.09.07.07.06.14.12.21.18.03.02.06.05.08.07.1.08.19.17.28.26,0,0,.02.01.02.02.03.02.05.04.08.06,0,0,0,0,0,0,.1.08.21.14.33.19,0,0,0,0,0,0,.06.02.11.04.17.05,0,0,.01,0,.02,0,.05.01.11.02.16.03.01,0,.03,0,.04,0,.05,0,.1,0,.15,0,.02,0,.05,0,.07,0,.04,0,.08,0,.12-.01.04,0,.07-.02.11-.03.03,0,.06-.01.08-.02.06-.02.13-.05.19-.08.02-.01.05-.02.08-.03.21-.1.44-.16.67-.19.09-.01.18-.02.27-.02h3.42c.37,0,.71.09,1.02.24.5.25,1.11.18,1.52-.2,0,0,0,0,0,0,0,0,.01-.01.02-.02.59-.57,1.25-1.04,1.97-1.39.2-.1.41-.19.63-.27.75-.28,1.54-.43,2.35-.43h5.66c.25,0,.5.05.72.14s.42.23.58.39c.29.29.49.68.53,1.11,0,.06,0,.12,0,.19v1.53c0,.51-.21.97-.54,1.3-.04.04-.09.08-.13.12-.32.26-.73.42-1.17.42h-5.59c-.06,0-.12,0-.18,0s-.12.02-.18.03c-.2.04-.39.12-.57.22-.14.08-.27.18-.38.29,0,0-.01.01-.02.02-.14.14-.2.3-.21.47h0s0,.07,0,.1c.04.33.3.62.69.62h13.71c1.66,0,2.7-1.81,1.86-3.24Z"/>
        <path class="cls-1" d="M23.93,18.67h-8.5l6.36,4.58c.54-1.22,1.45-2.24,2.59-2.9.28-.16.45-.46.45-.78h0c0-.5-.4-.9-.9-.9Z"/>
        <path class="cls-1" d="M2.91,18.67c-.96,0-1.81.64-2.07,1.56-.39,1.4-.67,2.85-.83,4.33-.12,1.1.61,2.07,1.63,2.32l8.57-6.17s0,0,0,0l2.84-2.04H2.91Z"/>
      </g>
    </g>
  </g>
</svg>